<?xml version="1.0" encoding="UTF-8"?>
<svg id="Livello_2" data-name="Livello 2" xmlns="http://www.w3.org/2000/svg" width="101.5mm" height="34.5mm" viewBox="0 0 287.6 97.7">
  <defs>
    <style>
      .cls-1 {
        fill: #e9500e;
      }

      .cls-1, .cls-2 {
        stroke-width: 0px;
      }

      .cls-2 {
        fill: #004c6a;
      }
    </style>
  </defs>
  <g id="Livello_1-2" data-name="Livello 1">
    <g>
      <path class="cls-2" d="m82,83.6h1.7v-.9c0-.7,0-1.2.2-1.6.2-.4.4-.7.6-.9.3-.2.6-.4.9-.4.3,0,.7-.1,1.1-.1.7,0,1.3,0,1.6.1v1.8c-.1,0-.3,0-.5,0-.2,0-.4,0-.6,0s-.6,0-.8.2c-.2.1-.3.4-.3.9v1.1h1.9v1.7h-1.9v8.6h-2.3v-8.6h-1.7v-1.7Z"/>
      <path class="cls-2" d="m98.4,93.9h-2.2v-1.4h0c-.3.5-.7.9-1.2,1.3-.6.3-1.1.5-1.7.5-1.4,0-2.3-.3-2.9-1-.6-.7-.9-1.7-.9-3v-6.6h2.3v6.3c0,.9.2,1.5.5,1.9.3.4.8.6,1.5.6s.9,0,1.2-.2c.3-.1.6-.3.8-.6.2-.2.3-.5.4-.9,0-.3.1-.7.1-1.1v-6h2.3v10.3Z"/>
      <path class="cls-2" d="m99.8,83.6h1.7v-3.1h2.3v3.1h2.1v1.7h-2.1v5.5c0,.2,0,.4,0,.6,0,.2,0,.3.1.4,0,.1.2.2.3.3.1,0,.3,0,.6,0s.3,0,.5,0c.2,0,.3,0,.5,0v1.8c-.3,0-.5,0-.7,0-.2,0-.5,0-.7,0-.6,0-1.1,0-1.5-.2-.4-.1-.7-.3-.9-.5-.2-.2-.3-.5-.4-.8,0-.3-.1-.7-.1-1.1v-6.1h-1.7v-1.7Z"/>
      <path class="cls-2" d="m116.6,93.9h-2.2v-1.4h0c-.3.5-.7.9-1.3,1.3-.6.3-1.1.5-1.7.5-1.4,0-2.3-.3-2.9-1-.6-.7-.9-1.7-.9-3v-6.6h2.3v6.3c0,.9.2,1.5.5,1.9.3.4.8.6,1.5.6s.9,0,1.2-.2c.3-.1.6-.3.8-.6.2-.2.3-.5.4-.9,0-.3.1-.7.1-1.1v-6h2.3v10.3Z"/>
      <path class="cls-2" d="m119,83.6h2.1v2h0c0-.3.2-.6.4-.8.2-.3.4-.5.7-.7.3-.2.6-.4.9-.5.3-.1.7-.2,1-.2s.4,0,.5,0c.1,0,.2,0,.3,0v2.2c-.2,0-.3,0-.5,0-.2,0-.3,0-.5,0-.4,0-.8,0-1.1.2s-.6.4-.9.7c-.3.3-.5.7-.6,1.1-.1.4-.2.9-.2,1.5v4.9h-2.3v-10.3Z"/>
      <path class="cls-2" d="m127.4,89.3c0,.4,0,.8.2,1.2.1.4.3.7.5,1,.2.3.5.5.9.7.3.2.8.2,1.2.2s1.2-.1,1.6-.4c.4-.3.7-.7.9-1.3h2.2c-.1.6-.3,1.1-.6,1.5-.3.4-.6.8-1.1,1.1-.4.3-.9.5-1.4.7-.5.2-1,.2-1.6.2-.8,0-1.5-.1-2.2-.4-.6-.3-1.2-.6-1.6-1.1-.4-.5-.8-1.1-1-1.7-.2-.7-.3-1.4-.3-2.2s.1-1.4.4-2.1c.2-.7.6-1.2,1-1.7.4-.5,1-.9,1.6-1.2.6-.3,1.3-.4,2.1-.4s1.5.2,2.2.5c.6.3,1.2.8,1.6,1.3.4.6.7,1.2.9,1.9.2.7.2,1.5.2,2.2h-7.6Zm5.3-1.5c0-.4-.1-.7-.2-1-.1-.3-.3-.6-.5-.9-.2-.2-.5-.4-.8-.6-.3-.2-.7-.2-1-.2s-.8,0-1.1.2c-.3.1-.6.3-.8.6-.2.2-.4.5-.6.9-.1.3-.2.7-.2,1.1h5.3Z"/>
      <path class="cls-2" d="m147.3,83.6h2.2v1.4h0c.3-.6.8-1,1.3-1.3.6-.3,1.2-.4,1.9-.4s1.5.1,2.1.4c.6.3,1.1.7,1.5,1.2.4.5.7,1.1.9,1.7.2.7.3,1.4.3,2.1s0,1.4-.3,2c-.2.7-.5,1.2-.8,1.7-.4.5-.8.9-1.4,1.2-.6.3-1.2.5-2,.5s-.7,0-1,0c-.3,0-.7-.2-1-.3-.3-.1-.6-.3-.8-.5-.3-.2-.5-.4-.6-.7h0v5.2h-2.3v-14.2Zm8,5.2c0-.5,0-.9-.2-1.4-.1-.4-.3-.8-.5-1.2-.2-.3-.5-.6-.9-.8s-.8-.3-1.2-.3c-1,0-1.7.3-2.2,1-.5.7-.7,1.6-.7,2.7s0,1,.2,1.4c.1.4.3.8.6,1.2.3.3.6.6.9.8.4.2.8.3,1.2.3s1-.1,1.3-.3c.4-.2.7-.5.9-.8.2-.3.4-.7.5-1.2.1-.4.1-.9.1-1.3"/>
      <path class="cls-2" d="m161,89.3c0,.4,0,.8.2,1.2.1.4.3.7.5,1,.2.3.5.5.9.7.3.2.8.2,1.2.2s1.2-.1,1.6-.4c.4-.3.7-.7.9-1.3h2.2c-.1.6-.3,1.1-.6,1.5-.3.4-.6.8-1.1,1.1-.4.3-.9.5-1.4.7-.5.2-1,.2-1.6.2-.8,0-1.5-.1-2.2-.4-.6-.3-1.2-.6-1.6-1.1-.4-.5-.8-1.1-1-1.7-.2-.7-.3-1.4-.3-2.2s.1-1.4.4-2.1c.2-.7.6-1.2,1-1.7.4-.5,1-.9,1.6-1.2.6-.3,1.3-.4,2.1-.4s1.5.2,2.2.5c.6.3,1.2.8,1.6,1.3.4.6.7,1.2.9,1.9.2.7.2,1.5.2,2.2h-7.6Zm5.3-1.5c0-.4-.1-.7-.2-1-.1-.3-.3-.6-.5-.9-.2-.2-.5-.4-.8-.6-.3-.2-.7-.2-1-.2s-.8,0-1.1.2c-.3.1-.6.3-.8.6-.2.2-.4.5-.6.9-.1.3-.2.7-.2,1.1h5.3Z"/>
      <path class="cls-2" d="m170,83.6h2.1v2h0c0-.3.2-.6.4-.8.2-.3.4-.5.7-.7.3-.2.6-.4.9-.5.3-.1.7-.2,1-.2s.4,0,.5,0c.1,0,.2,0,.3,0v2.2c-.2,0-.3,0-.5,0-.2,0-.3,0-.5,0-.4,0-.8,0-1.1.2-.3.2-.6.4-.9.7-.3.3-.5.7-.6,1.1-.1.4-.2.9-.2,1.5v4.9h-2.3v-10.3Z"/>
      <path class="cls-2" d="m177,83.6h1.7v-.9c0-.7,0-1.2.2-1.6.2-.4.4-.7.6-.9.3-.2.6-.4.9-.4.3,0,.7-.1,1.1-.1.7,0,1.3,0,1.6.1v1.8c-.1,0-.3,0-.5,0-.2,0-.4,0-.6,0s-.6,0-.8.2c-.2.1-.3.4-.3.9v1.1h1.9v1.7h-1.9v8.6h-2.3v-8.6h-1.7v-1.7Z"/>
      <path class="cls-2" d="m185.7,89.3c0,.4,0,.8.2,1.2.1.4.3.7.5,1,.2.3.5.5.9.7.3.2.8.2,1.2.2s1.2-.1,1.6-.4c.4-.3.7-.7.9-1.3h2.2c-.1.6-.3,1.1-.6,1.5-.3.4-.6.8-1.1,1.1-.4.3-.9.5-1.4.7-.5.2-1.1.2-1.6.2-.8,0-1.5-.1-2.2-.4-.6-.3-1.2-.6-1.6-1.1-.4-.5-.8-1.1-1-1.7-.2-.7-.3-1.4-.3-2.2s.1-1.4.4-2.1c.2-.7.6-1.2,1-1.7.4-.5,1-.9,1.6-1.2.6-.3,1.3-.4,2.1-.4s1.5.2,2.2.5c.6.3,1.2.8,1.6,1.3.4.6.7,1.2.9,1.9.2.7.2,1.5.1,2.2h-7.6Zm5.3-1.5c0-.4-.1-.7-.2-1-.1-.3-.3-.6-.5-.9-.2-.2-.5-.4-.8-.6-.3-.2-.7-.2-1-.2s-.8,0-1.1.2c-.3.1-.6.3-.8.6-.2.2-.4.5-.6.9-.1.3-.2.7-.2,1.1h5.3Z"/>
      <path class="cls-2" d="m202,87c0-.6-.4-1.1-.8-1.4-.4-.3-1-.5-1.6-.5s-.6,0-.9.2c-.3,0-.6.3-.9.6-.3.3-.5.7-.7,1.1-.2.5-.3,1.1-.3,1.9s0,.9.2,1.3c0,.4.3.8.5,1.1.2.3.5.6.8.8.3.2.8.3,1.3.3s1.2-.2,1.6-.6c.4-.4.7-1,.8-1.7h2.3c-.2,1.3-.7,2.4-1.5,3.1-.8.7-1.9,1.1-3.2,1.1s-1.5-.1-2.2-.4c-.6-.3-1.1-.6-1.6-1.1-.4-.5-.8-1-1-1.7-.2-.7-.3-1.4-.3-2.1s.1-1.5.3-2.2c.2-.7.5-1.3,1-1.8.4-.5,1-.9,1.6-1.2.6-.3,1.4-.4,2.2-.4s1.2,0,1.7.2c.5.2,1,.4,1.4.7.4.3.8.7,1,1.2.3.5.4,1,.5,1.7h-2.3Z"/>
      <path class="cls-2" d="m205.1,83.6h1.7v-3.1h2.3v3.1h2.1v1.7h-2.1v5.5c0,.2,0,.4,0,.6,0,.2,0,.3.1.4,0,.1.2.2.3.3.1,0,.3,0,.6,0s.3,0,.5,0c.2,0,.3,0,.5,0v1.8c-.3,0-.5,0-.7,0-.2,0-.5,0-.7,0-.6,0-1.1,0-1.5-.2-.4-.1-.7-.3-.9-.5-.2-.2-.3-.5-.4-.8,0-.3-.1-.7-.1-1.1v-6.1h-1.7v-1.7Z"/>
      <path class="cls-2" d="m225.6,90.6c0,.7.3,1.1.8,1.4.4.3,1,.4,1.6.4s.5,0,.7,0c.3,0,.5,0,.8-.2.2,0,.4-.2.6-.4.2-.2.2-.4.2-.7,0-.3-.1-.5-.3-.7-.2-.2-.5-.3-.8-.5-.3-.1-.7-.2-1.1-.3-.4,0-.8-.2-1.2-.3-.4,0-.8-.2-1.2-.3-.4-.1-.7-.3-1.1-.5-.3-.2-.6-.5-.7-.9-.2-.4-.3-.8-.3-1.3s.1-1,.4-1.4c.3-.4.6-.7,1-.9.4-.2.9-.4,1.4-.5.5,0,1-.1,1.5-.1s1,0,1.5.2c.5.1.9.3,1.3.6.4.3.7.6,1,1,.3.4.4.9.5,1.5h-2.4c-.1-.5-.4-.9-.8-1.1-.4-.2-.8-.3-1.3-.3s-.3,0-.6,0c-.2,0-.4,0-.6.2-.2,0-.4.2-.5.3-.1.1-.2.3-.2.5s0,.5.3.7c.2.2.4.3.8.4.3.1.7.2,1.1.3.4,0,.8.2,1.2.3.4,0,.8.2,1.2.3.4.1.8.3,1.1.5.3.2.6.5.8.9.2.3.3.8.3,1.3s-.1,1.1-.4,1.6c-.3.4-.6.8-1.1,1-.4.3-.9.5-1.5.6-.5.1-1.1.2-1.6.2s-1.3,0-1.8-.2c-.6-.1-1-.4-1.4-.7-.4-.3-.7-.7-1-1.1-.2-.4-.4-1-.4-1.6h2.3Z"/>
      <rect class="cls-2" x="234.3" y="83.6" width="2.3" height="10.3"/>
      <path class="cls-2" d="m239.1,83.6h2.2v1.4h0c.2-.3.4-.5.6-.7.2-.2.4-.4.7-.5.2-.1.5-.3.9-.4.3,0,.7-.1,1.1-.1.6,0,1.2.1,1.7.4.5.3.9.7,1.2,1.3.4-.5.8-1,1.3-1.3.5-.3,1.1-.5,1.9-.5,1.1,0,1.9.3,2.5.8.6.5.9,1.4.9,2.7v7.1h-2.3v-6c0-.4,0-.8,0-1.1,0-.3-.1-.6-.2-.9-.1-.2-.3-.4-.6-.6-.3-.1-.6-.2-1-.2-.8,0-1.3.2-1.7.7-.3.5-.5,1.2-.5,2v6.1h-2.3v-6.6c0-.7-.1-1.3-.4-1.6-.3-.4-.7-.6-1.4-.6s-.6,0-.8.2c-.3.1-.5.3-.7.5-.2.2-.4.5-.5.8-.1.3-.2.7-.2,1.1v6.1h-2.3v-10.3Z"/>
      <path class="cls-2" d="m256.5,83.6h2.2v1.4h0c.3-.6.8-1,1.3-1.3.6-.3,1.2-.4,1.9-.4s1.5.1,2.1.4c.6.3,1.1.7,1.5,1.2.4.5.7,1.1.9,1.7.2.7.3,1.4.3,2.1s0,1.4-.3,2c-.2.7-.5,1.2-.8,1.7-.4.5-.8.9-1.4,1.2-.6.3-1.2.5-2,.5s-.7,0-1,0-.7-.2-1-.3c-.3-.1-.6-.3-.8-.5-.3-.2-.5-.4-.7-.7h0v5.2h-2.3v-14.2Zm8,5.2c0-.5,0-.9-.2-1.4-.1-.4-.3-.8-.5-1.2-.2-.3-.5-.6-.9-.8s-.8-.3-1.2-.3c-1,0-1.7.3-2.2,1-.5.7-.7,1.6-.7,2.7s0,1,.2,1.4c.1.4.3.8.6,1.2.3.3.6.6.9.8.4.2.8.3,1.2.3s1-.1,1.3-.3c.4-.2.7-.5.9-.8.2-.3.4-.7.5-1.2,0-.4.1-.9.1-1.3"/>
      <rect class="cls-2" x="268.7" y="79.6" width="2.3" height="14.3"/>
      <path class="cls-2" d="m275.3,89.3c0,.4,0,.8.2,1.2.1.4.3.7.5,1,.2.3.5.5.9.7.3.2.8.2,1.2.2s1.2-.1,1.6-.4c.4-.3.7-.7.9-1.3h2.2c-.1.6-.3,1.1-.6,1.5-.3.4-.6.8-1.1,1.1-.4.3-.9.5-1.4.7-.5.2-1,.2-1.6.2-.8,0-1.5-.1-2.2-.4-.6-.3-1.2-.6-1.6-1.1-.4-.5-.8-1.1-1-1.7-.2-.7-.3-1.4-.3-2.2s.1-1.4.4-2.1c.2-.7.6-1.2,1-1.7.4-.5,1-.9,1.6-1.2.6-.3,1.3-.4,2.1-.4s1.5.2,2.2.5c.6.3,1.2.8,1.6,1.3.4.6.7,1.2.9,1.9.2.7.2,1.5.1,2.2h-7.6Zm5.3-1.5c0-.4-.1-.7-.2-1-.1-.3-.3-.6-.5-.9-.2-.2-.5-.4-.8-.6-.3-.2-.7-.2-1-.2s-.8,0-1.1.2c-.3.1-.6.3-.8.6-.2.2-.4.5-.6.9-.1.3-.2.7-.2,1.1h5.3Z"/>
      <path class="cls-2" d="m136.8,92.4c0-.8.6-1.4,1.4-1.4s1.4.6,1.4,1.4-.6,1.4-1.4,1.4-1.4-.6-1.4-1.4"/>
      <path class="cls-2" d="m213,92.4c0-.8.6-1.4,1.4-1.4s1.4.6,1.4,1.4-.6,1.4-1.4,1.4-1.4-.6-1.4-1.4"/>
      <path class="cls-2" d="m234.2,80.6c0-.7.6-1.3,1.3-1.3s1.3.6,1.3,1.3-.6,1.3-1.3,1.3-1.3-.6-1.3-1.3"/>
      <path class="cls-2" d="m284.8,92.4c0-.8.6-1.4,1.4-1.4s1.4.6,1.4,1.4-.6,1.4-1.4,1.4-1.4-.6-1.4-1.4"/>
      <path class="cls-1" d="m213.5,59.1c1.1.3,1.4,0,1.3-1-2.1-11.9,2.7-34.7,15.8-44.9,1.1-.9,1.6-1.8-.7-1.2-17,4.4-35.9,41.7-16.3,47h0Z"/>
      <path class="cls-1" d="m203.6,37.8c-6.3-10-22.6-9.4-22.7-9.4-.3,0-.3.1,0,.2,8.5,2.3,16.1,8.4,21.3,15.5.4-2.5.6-3.7,1.4-6.3h0Z"/>
      <path class="cls-1" d="m237.1,6.2c0-3.4,2.8-6.2,6.2-6.2s6.2,2.8,6.2,6.2-2.8,6.2-6.2,6.2-6.2-2.8-6.2-6.2h0Z"/>
      <path class="cls-2" d="m103.5,30.6h-21.5v30.2c0,6.5,4.7,7.9,7,8.6.3,0,.5.2.8.2l1.1.4v-10.5h12.6c3.9,0,6.6-1,8.1-2.8,1.1-1.4,1.6-3.5,1.6-6.6v-9.7c0-3.2-.6-5.6-1.7-6.9-1.5-1.9-4.2-2.8-8-2.8Zm-12.6,4.5h2.8c1.5,0,2.7,0,3.6,0,4,0,5.5.6,6.1,1,.4.3.9,1.1.9,3.2v11.2c0,1.8-.3,2.8-.5,3.2-.5.9-1.5,1.3-3.2,1.3h-9.7v-19.9Z"/>
      <path class="cls-2" d="m22.6,30.6h-13.1c-3.8,0-6.5,1-8,2.8-1.1,1.4-1.6,3.5-1.6,6.6v10.1c0,3.1.5,5.2,1.6,6.6,1.5,1.9,4.1,2.8,8,2.8h17.7v-4.5h-13.4c-2.2,0-3.7-.4-4.3-1.2-.2-.3-.6-1.2-.6-3.6v-2.1h13.7c3.6,0,7.9-1.5,7.9-8.7s-4.3-8.9-7.9-8.9Zm.2,8.9c0,2.1-.4,3-.8,3.4-.5.5-1.5.7-2.9.7h-10.3v-3.7c0-1.9.3-2.9.5-3.3.5-1,1.6-1.5,3.3-1.5h6.5c1.5,0,2.5.3,2.9.8.3.4.8,1.3.8,3.5Z"/>
      <path class="cls-2" d="m69.9,30.6h-8l-6.4,7.4-2.3-2.6c-4-4.5-9.8-4.9-11.5-4.9s-2.3.1-3,.4l-1.1.4,11.8,13.7-12.5,14.5h8l8.5-9.9,4.2,4.9c4,4.5,9.8,4.9,11.5,4.9s2.3-.1,3-.4l1.1-.4-13.8-16,10.4-12.1Z"/>
      <path class="cls-2" d="m122,39.7v10.8c-.2,4.5,2.5,7.6,7.6,8.8l1.2.3v-19.2c0-3,.4-3.9.6-4.1.3-.4,1.5-1.1,5-1.1h13.6v-4.5h-14.9c-8.7,0-13.2,3.1-13.2,9.1Z"/>
      <path class="cls-2" d="m158,30.6v4.5h6.8v15.8c0,4.7,2.7,7.2,7.8,8.3l1,.2v-28.9h-15.6Z"/>
      <path class="cls-2" d="m285.9,33c-1.4-1.6-4.1-2.4-8-2.4h-16.8v4.5h13.8c1.6,0,2.7.3,3.2,1,.3.4.6,1.1.6,2.7v2.7h-14c-2.8,0-5,1.1-6.5,3.2-1.2,1.7-1.8,3.7-1.8,5.9s.6,4.1,1.8,5.8c1.5,2.1,3.7,3.2,6.5,3.2h22.8v-20.1c0-3.1-.5-5.2-1.6-6.4Zm-7.2,13.1v8.9h-11.2c-.5,0-1.3-.2-1.9-1.7-.4-.9-.6-2-.6-3.1,0-1.7.5-2.9,1.5-3.4.6-.3,1.9-.7,4.8-.7s1.3,0,2.4,0h5Z"/>
      <path class="cls-2" d="m232.2,30.6v4.5h6.8v15.3c0,4.7,2.7,7.8,7.9,8.9l1,.2v-28.9h-15.6Z"/>
    </g>
  </g>
</svg>